<mxfile host="app.diagrams.net" modified="2023-05-03T12:39:49.060Z" agent="Mozilla/5.0 (Windows NT 10.0; Win64; x64) AppleWebKit/537.36 (KHTML, like Gecko) Chrome/111.0.0.0 Safari/537.36" etag="CzR5d33lM8sRQBacUbIN" version="21.2.7" type="github">
  <diagram name="Page-1" id="td3aLECgbXljrm29gg1P">
    <mxGraphModel dx="1434" dy="764" grid="1" gridSize="10" guides="1" tooltips="1" connect="1" arrows="1" fold="1" page="1" pageScale="1" pageWidth="827" pageHeight="1169" math="0" shadow="0">
      <root>
        <mxCell id="0" />
        <mxCell id="1" parent="0" />
        <mxCell id="Lg_2VnEJvZDRzH9SZ8TW-8" value="lot_siba_eloa" style="swimlane;html=1;fontStyle=0;childLayout=stackLayout;horizontal=1;startSize=26;fillColor=#b1ddf0;horizontalStack=0;resizeParent=1;resizeLast=0;collapsible=1;marginBottom=0;swimlaneFillColor=#ffffff;align=center;rounded=0;shadow=0;comic=0;labelBackgroundColor=none;strokeWidth=1;fontFamily=Verdana;fontSize=11;swimlaneLine=1;strokeColor=#10739e;" vertex="1" parent="1">
          <mxGeometry x="280" y="41" width="140" height="119" as="geometry" />
        </mxCell>
        <mxCell id="Lg_2VnEJvZDRzH9SZ8TW-9" value="id_lot_siba_eloa" style="shape=partialRectangle;top=0;left=0;right=0;bottom=1;html=1;align=left;verticalAlign=middle;fillColor=none;spacingLeft=34;spacingRight=4;whiteSpace=wrap;overflow=hidden;rotatable=0;points=[[0,0.5],[1,0.5]];portConstraint=eastwest;dropTarget=0;fontStyle=5;fontSize=11;" vertex="1" parent="Lg_2VnEJvZDRzH9SZ8TW-8">
          <mxGeometry y="26" width="140" height="30" as="geometry" />
        </mxCell>
        <mxCell id="Lg_2VnEJvZDRzH9SZ8TW-10" value="PK" style="shape=partialRectangle;top=0;left=0;bottom=0;html=1;fillColor=none;align=left;verticalAlign=middle;spacingLeft=4;spacingRight=4;whiteSpace=wrap;overflow=hidden;rotatable=0;points=[];portConstraint=eastwest;part=1;fontSize=11;" vertex="1" connectable="0" parent="Lg_2VnEJvZDRzH9SZ8TW-9">
          <mxGeometry width="30" height="30" as="geometry" />
        </mxCell>
        <mxCell id="Lg_2VnEJvZDRzH9SZ8TW-11" value="gid_siba" style="shape=partialRectangle;top=0;left=0;right=0;bottom=0;html=1;align=left;verticalAlign=top;fillColor=none;spacingLeft=34;spacingRight=4;whiteSpace=wrap;overflow=hidden;rotatable=0;points=[[0,0.5],[1,0.5]];portConstraint=eastwest;dropTarget=0;fontSize=11;" vertex="1" parent="Lg_2VnEJvZDRzH9SZ8TW-8">
          <mxGeometry y="56" width="140" height="26" as="geometry" />
        </mxCell>
        <mxCell id="Lg_2VnEJvZDRzH9SZ8TW-12" value="" style="shape=partialRectangle;top=0;left=0;bottom=0;html=1;fillColor=none;align=left;verticalAlign=top;spacingLeft=4;spacingRight=4;whiteSpace=wrap;overflow=hidden;rotatable=0;points=[];portConstraint=eastwest;part=1;fontSize=11;" vertex="1" connectable="0" parent="Lg_2VnEJvZDRzH9SZ8TW-11">
          <mxGeometry width="30" height="26" as="geometry" />
        </mxCell>
        <mxCell id="Lg_2VnEJvZDRzH9SZ8TW-13" value="gid_eloa" style="shape=partialRectangle;top=0;left=0;right=0;bottom=0;html=1;align=left;verticalAlign=top;fillColor=none;spacingLeft=34;spacingRight=4;whiteSpace=wrap;overflow=hidden;rotatable=0;points=[[0,0.5],[1,0.5]];portConstraint=eastwest;dropTarget=0;fontSize=11;" vertex="1" parent="Lg_2VnEJvZDRzH9SZ8TW-8">
          <mxGeometry y="82" width="140" height="26" as="geometry" />
        </mxCell>
        <mxCell id="Lg_2VnEJvZDRzH9SZ8TW-14" value="" style="shape=partialRectangle;top=0;left=0;bottom=0;html=1;fillColor=none;align=left;verticalAlign=top;spacingLeft=4;spacingRight=4;whiteSpace=wrap;overflow=hidden;rotatable=0;points=[];portConstraint=eastwest;part=1;fontSize=11;" vertex="1" connectable="0" parent="Lg_2VnEJvZDRzH9SZ8TW-13">
          <mxGeometry width="30" height="26" as="geometry" />
        </mxCell>
        <mxCell id="Lg_2VnEJvZDRzH9SZ8TW-17" value="" style="shape=partialRectangle;top=0;left=0;right=0;bottom=0;html=1;align=left;verticalAlign=top;fillColor=none;spacingLeft=34;spacingRight=4;whiteSpace=wrap;overflow=hidden;rotatable=0;points=[[0,0.5],[1,0.5]];portConstraint=eastwest;dropTarget=0;fontSize=11;" vertex="1" parent="Lg_2VnEJvZDRzH9SZ8TW-8">
          <mxGeometry y="108" width="140" height="10" as="geometry" />
        </mxCell>
        <mxCell id="Lg_2VnEJvZDRzH9SZ8TW-18" value="" style="shape=partialRectangle;top=0;left=0;bottom=0;html=1;fillColor=none;align=left;verticalAlign=top;spacingLeft=4;spacingRight=4;whiteSpace=wrap;overflow=hidden;rotatable=0;points=[];portConstraint=eastwest;part=1;fontSize=11;" vertex="1" connectable="0" parent="Lg_2VnEJvZDRzH9SZ8TW-17">
          <mxGeometry width="30" height="10" as="geometry" />
        </mxCell>
        <mxCell id="Lg_2VnEJvZDRzH9SZ8TW-19" value="lot_dossier_eloa" style="swimlane;html=1;fontStyle=0;childLayout=stackLayout;horizontal=1;startSize=26;fillColor=#fff2cc;horizontalStack=0;resizeParent=1;resizeLast=0;collapsible=1;marginBottom=0;swimlaneFillColor=#ffffff;align=center;rounded=0;shadow=0;comic=0;labelBackgroundColor=none;strokeWidth=1;fontFamily=Verdana;fontSize=11;strokeColor=#d6b656;gradientColor=#ffd966;" vertex="1" parent="1">
          <mxGeometry x="520" y="41" width="160" height="326" as="geometry" />
        </mxCell>
        <mxCell id="Lg_2VnEJvZDRzH9SZ8TW-20" value="id_dossier" style="shape=partialRectangle;top=0;left=0;right=0;bottom=1;html=1;align=left;verticalAlign=middle;fillColor=none;spacingLeft=34;spacingRight=4;whiteSpace=wrap;overflow=hidden;rotatable=0;points=[[0,0.5],[1,0.5]];portConstraint=eastwest;dropTarget=0;fontStyle=5;fontSize=11;" vertex="1" parent="Lg_2VnEJvZDRzH9SZ8TW-19">
          <mxGeometry y="26" width="160" height="30" as="geometry" />
        </mxCell>
        <mxCell id="Lg_2VnEJvZDRzH9SZ8TW-21" value="PK" style="shape=partialRectangle;top=0;left=0;bottom=0;html=1;fillColor=none;align=left;verticalAlign=middle;spacingLeft=4;spacingRight=4;whiteSpace=wrap;overflow=hidden;rotatable=0;points=[];portConstraint=eastwest;part=1;fontSize=11;" vertex="1" connectable="0" parent="Lg_2VnEJvZDRzH9SZ8TW-20">
          <mxGeometry width="30" height="30" as="geometry" />
        </mxCell>
        <mxCell id="Lg_2VnEJvZDRzH9SZ8TW-22" value="nom_lotissement" style="shape=partialRectangle;top=0;left=0;right=0;bottom=0;html=1;align=left;verticalAlign=top;fillColor=none;spacingLeft=34;spacingRight=4;whiteSpace=wrap;overflow=hidden;rotatable=0;points=[[0,0.5],[1,0.5]];portConstraint=eastwest;dropTarget=0;fontSize=11;" vertex="1" parent="Lg_2VnEJvZDRzH9SZ8TW-19">
          <mxGeometry y="56" width="160" height="26" as="geometry" />
        </mxCell>
        <mxCell id="Lg_2VnEJvZDRzH9SZ8TW-23" value="" style="shape=partialRectangle;top=0;left=0;bottom=0;html=1;fillColor=none;align=left;verticalAlign=top;spacingLeft=4;spacingRight=4;whiteSpace=wrap;overflow=hidden;rotatable=0;points=[];portConstraint=eastwest;part=1;fontSize=11;" vertex="1" connectable="0" parent="Lg_2VnEJvZDRzH9SZ8TW-22">
          <mxGeometry width="30" height="26" as="geometry" />
        </mxCell>
        <mxCell id="Lg_2VnEJvZDRzH9SZ8TW-24" value="commune" style="shape=partialRectangle;top=0;left=0;right=0;bottom=0;html=1;align=left;verticalAlign=top;fillColor=none;spacingLeft=34;spacingRight=4;whiteSpace=wrap;overflow=hidden;rotatable=0;points=[[0,0.5],[1,0.5]];portConstraint=eastwest;dropTarget=0;fontSize=11;" vertex="1" parent="Lg_2VnEJvZDRzH9SZ8TW-19">
          <mxGeometry y="82" width="160" height="26" as="geometry" />
        </mxCell>
        <mxCell id="Lg_2VnEJvZDRzH9SZ8TW-25" value="" style="shape=partialRectangle;top=0;left=0;bottom=0;html=1;fillColor=none;align=left;verticalAlign=top;spacingLeft=4;spacingRight=4;whiteSpace=wrap;overflow=hidden;rotatable=0;points=[];portConstraint=eastwest;part=1;fontSize=11;" vertex="1" connectable="0" parent="Lg_2VnEJvZDRzH9SZ8TW-24">
          <mxGeometry width="30" height="26" as="geometry" />
        </mxCell>
        <mxCell id="Lg_2VnEJvZDRzH9SZ8TW-26" value="precision" style="shape=partialRectangle;top=0;left=0;right=0;bottom=0;html=1;align=left;verticalAlign=top;fillColor=none;spacingLeft=34;spacingRight=4;whiteSpace=wrap;overflow=hidden;rotatable=0;points=[[0,0.5],[1,0.5]];portConstraint=eastwest;dropTarget=0;fontSize=11;" vertex="1" parent="Lg_2VnEJvZDRzH9SZ8TW-19">
          <mxGeometry y="108" width="160" height="26" as="geometry" />
        </mxCell>
        <mxCell id="Lg_2VnEJvZDRzH9SZ8TW-27" value="" style="shape=partialRectangle;top=0;left=0;bottom=0;html=1;fillColor=none;align=left;verticalAlign=top;spacingLeft=4;spacingRight=4;whiteSpace=wrap;overflow=hidden;rotatable=0;points=[];portConstraint=eastwest;part=1;fontSize=11;" vertex="1" connectable="0" parent="Lg_2VnEJvZDRzH9SZ8TW-26">
          <mxGeometry width="30" height="26" as="geometry" />
        </mxCell>
        <mxCell id="Lg_2VnEJvZDRzH9SZ8TW-115" value="date_demande" style="shape=partialRectangle;top=0;left=0;right=0;bottom=0;html=1;align=left;verticalAlign=top;fillColor=none;spacingLeft=34;spacingRight=4;whiteSpace=wrap;overflow=hidden;rotatable=0;points=[[0,0.5],[1,0.5]];portConstraint=eastwest;dropTarget=0;fontSize=11;" vertex="1" parent="Lg_2VnEJvZDRzH9SZ8TW-19">
          <mxGeometry y="134" width="160" height="26" as="geometry" />
        </mxCell>
        <mxCell id="Lg_2VnEJvZDRzH9SZ8TW-116" value="" style="shape=partialRectangle;top=0;left=0;bottom=0;html=1;fillColor=none;align=left;verticalAlign=top;spacingLeft=4;spacingRight=4;whiteSpace=wrap;overflow=hidden;rotatable=0;points=[];portConstraint=eastwest;part=1;fontSize=11;" vertex="1" connectable="0" parent="Lg_2VnEJvZDRzH9SZ8TW-115">
          <mxGeometry width="30" height="26" as="geometry" />
        </mxCell>
        <mxCell id="Lg_2VnEJvZDRzH9SZ8TW-119" value="date_incorpo" style="shape=partialRectangle;top=0;left=0;right=0;bottom=0;html=1;align=left;verticalAlign=top;fillColor=none;spacingLeft=34;spacingRight=4;whiteSpace=wrap;overflow=hidden;rotatable=0;points=[[0,0.5],[1,0.5]];portConstraint=eastwest;dropTarget=0;fontSize=11;" vertex="1" parent="Lg_2VnEJvZDRzH9SZ8TW-19">
          <mxGeometry y="160" width="160" height="26" as="geometry" />
        </mxCell>
        <mxCell id="Lg_2VnEJvZDRzH9SZ8TW-120" value="" style="shape=partialRectangle;top=0;left=0;bottom=0;html=1;fillColor=none;align=left;verticalAlign=top;spacingLeft=4;spacingRight=4;whiteSpace=wrap;overflow=hidden;rotatable=0;points=[];portConstraint=eastwest;part=1;fontSize=11;" vertex="1" connectable="0" parent="Lg_2VnEJvZDRzH9SZ8TW-119">
          <mxGeometry width="30" height="26" as="geometry" />
        </mxCell>
        <mxCell id="Lg_2VnEJvZDRzH9SZ8TW-117" value="incorpo_reseau" style="shape=partialRectangle;top=0;left=0;right=0;bottom=0;html=1;align=left;verticalAlign=top;fillColor=none;spacingLeft=34;spacingRight=4;whiteSpace=wrap;overflow=hidden;rotatable=0;points=[[0,0.5],[1,0.5]];portConstraint=eastwest;dropTarget=0;fontSize=11;" vertex="1" parent="Lg_2VnEJvZDRzH9SZ8TW-19">
          <mxGeometry y="186" width="160" height="26" as="geometry" />
        </mxCell>
        <mxCell id="Lg_2VnEJvZDRzH9SZ8TW-118" value="" style="shape=partialRectangle;top=0;left=0;bottom=0;html=1;fillColor=none;align=left;verticalAlign=top;spacingLeft=4;spacingRight=4;whiteSpace=wrap;overflow=hidden;rotatable=0;points=[];portConstraint=eastwest;part=1;fontSize=11;" vertex="1" connectable="0" parent="Lg_2VnEJvZDRzH9SZ8TW-117">
          <mxGeometry width="30" height="26" as="geometry" />
        </mxCell>
        <mxCell id="Lg_2VnEJvZDRzH9SZ8TW-113" value="incorpo_poste" style="shape=partialRectangle;top=0;left=0;right=0;bottom=0;html=1;align=left;verticalAlign=top;fillColor=none;spacingLeft=34;spacingRight=4;whiteSpace=wrap;overflow=hidden;rotatable=0;points=[[0,0.5],[1,0.5]];portConstraint=eastwest;dropTarget=0;fontSize=11;" vertex="1" parent="Lg_2VnEJvZDRzH9SZ8TW-19">
          <mxGeometry y="212" width="160" height="26" as="geometry" />
        </mxCell>
        <mxCell id="Lg_2VnEJvZDRzH9SZ8TW-114" value="" style="shape=partialRectangle;top=0;left=0;bottom=0;html=1;fillColor=none;align=left;verticalAlign=top;spacingLeft=4;spacingRight=4;whiteSpace=wrap;overflow=hidden;rotatable=0;points=[];portConstraint=eastwest;part=1;fontSize=11;" vertex="1" connectable="0" parent="Lg_2VnEJvZDRzH9SZ8TW-113">
          <mxGeometry width="30" height="26" as="geometry" />
        </mxCell>
        <mxCell id="Lg_2VnEJvZDRzH9SZ8TW-133" value="lien_drive" style="shape=partialRectangle;top=0;left=0;right=0;bottom=0;html=1;align=left;verticalAlign=top;fillColor=none;spacingLeft=34;spacingRight=4;whiteSpace=wrap;overflow=hidden;rotatable=0;points=[[0,0.5],[1,0.5]];portConstraint=eastwest;dropTarget=0;fontSize=11;" vertex="1" parent="Lg_2VnEJvZDRzH9SZ8TW-19">
          <mxGeometry y="238" width="160" height="26" as="geometry" />
        </mxCell>
        <mxCell id="Lg_2VnEJvZDRzH9SZ8TW-134" value="" style="shape=partialRectangle;top=0;left=0;bottom=0;html=1;fillColor=none;align=left;verticalAlign=top;spacingLeft=4;spacingRight=4;whiteSpace=wrap;overflow=hidden;rotatable=0;points=[];portConstraint=eastwest;part=1;fontSize=11;" vertex="1" connectable="0" parent="Lg_2VnEJvZDRzH9SZ8TW-133">
          <mxGeometry width="30" height="26" as="geometry" />
        </mxCell>
        <mxCell id="Lg_2VnEJvZDRzH9SZ8TW-131" value="commentaire" style="shape=partialRectangle;top=0;left=0;right=0;bottom=0;html=1;align=left;verticalAlign=top;fillColor=none;spacingLeft=34;spacingRight=4;whiteSpace=wrap;overflow=hidden;rotatable=0;points=[[0,0.5],[1,0.5]];portConstraint=eastwest;dropTarget=0;fontSize=11;" vertex="1" parent="Lg_2VnEJvZDRzH9SZ8TW-19">
          <mxGeometry y="264" width="160" height="26" as="geometry" />
        </mxCell>
        <mxCell id="Lg_2VnEJvZDRzH9SZ8TW-132" value="" style="shape=partialRectangle;top=0;left=0;bottom=0;html=1;fillColor=none;align=left;verticalAlign=top;spacingLeft=4;spacingRight=4;whiteSpace=wrap;overflow=hidden;rotatable=0;points=[];portConstraint=eastwest;part=1;fontSize=11;" vertex="1" connectable="0" parent="Lg_2VnEJvZDRzH9SZ8TW-131">
          <mxGeometry width="30" height="26" as="geometry" />
        </mxCell>
        <mxCell id="Lg_2VnEJvZDRzH9SZ8TW-125" value="geom" style="shape=partialRectangle;top=0;left=0;right=0;bottom=0;html=1;align=left;verticalAlign=top;fillColor=none;spacingLeft=34;spacingRight=4;whiteSpace=wrap;overflow=hidden;rotatable=0;points=[[0,0.5],[1,0.5]];portConstraint=eastwest;dropTarget=0;fontSize=11;" vertex="1" parent="Lg_2VnEJvZDRzH9SZ8TW-19">
          <mxGeometry y="290" width="160" height="26" as="geometry" />
        </mxCell>
        <mxCell id="Lg_2VnEJvZDRzH9SZ8TW-126" value="" style="shape=partialRectangle;top=0;left=0;bottom=0;html=1;fillColor=none;align=left;verticalAlign=top;spacingLeft=4;spacingRight=4;whiteSpace=wrap;overflow=hidden;rotatable=0;points=[];portConstraint=eastwest;part=1;fontSize=11;" vertex="1" connectable="0" parent="Lg_2VnEJvZDRzH9SZ8TW-125">
          <mxGeometry width="30" height="26" as="geometry" />
        </mxCell>
        <mxCell id="Lg_2VnEJvZDRzH9SZ8TW-28" value="" style="shape=partialRectangle;top=0;left=0;right=0;bottom=0;html=1;align=left;verticalAlign=top;fillColor=none;spacingLeft=34;spacingRight=4;whiteSpace=wrap;overflow=hidden;rotatable=0;points=[[0,0.5],[1,0.5]];portConstraint=eastwest;dropTarget=0;fontSize=11;shadow=0;" vertex="1" parent="Lg_2VnEJvZDRzH9SZ8TW-19">
          <mxGeometry y="316" width="160" height="10" as="geometry" />
        </mxCell>
        <mxCell id="Lg_2VnEJvZDRzH9SZ8TW-29" value="" style="shape=partialRectangle;top=0;left=0;bottom=0;html=1;fillColor=none;align=left;verticalAlign=top;spacingLeft=4;spacingRight=4;whiteSpace=wrap;overflow=hidden;rotatable=0;points=[];portConstraint=eastwest;part=1;fontSize=11;" vertex="1" connectable="0" parent="Lg_2VnEJvZDRzH9SZ8TW-28">
          <mxGeometry width="30" height="10" as="geometry" />
        </mxCell>
        <mxCell id="Lg_2VnEJvZDRzH9SZ8TW-30" value="Table" style="swimlane;html=1;fontStyle=0;childLayout=stackLayout;horizontal=1;startSize=26;fillColor=#e0e0e0;horizontalStack=0;resizeParent=1;resizeLast=0;collapsible=1;marginBottom=0;swimlaneFillColor=#ffffff;align=center;rounded=0;shadow=0;comic=0;labelBackgroundColor=none;strokeWidth=1;fontFamily=Verdana;fontSize=14" vertex="1" parent="1">
          <mxGeometry x="850" y="595" width="160" height="144" as="geometry" />
        </mxCell>
        <mxCell id="Lg_2VnEJvZDRzH9SZ8TW-31" value="uniqueId" style="shape=partialRectangle;top=0;left=0;right=0;bottom=1;html=1;align=left;verticalAlign=middle;fillColor=none;spacingLeft=34;spacingRight=4;whiteSpace=wrap;overflow=hidden;rotatable=0;points=[[0,0.5],[1,0.5]];portConstraint=eastwest;dropTarget=0;fontStyle=5;" vertex="1" parent="Lg_2VnEJvZDRzH9SZ8TW-30">
          <mxGeometry y="26" width="160" height="30" as="geometry" />
        </mxCell>
        <mxCell id="Lg_2VnEJvZDRzH9SZ8TW-32" value="PK" style="shape=partialRectangle;top=0;left=0;bottom=0;html=1;fillColor=none;align=left;verticalAlign=middle;spacingLeft=4;spacingRight=4;whiteSpace=wrap;overflow=hidden;rotatable=0;points=[];portConstraint=eastwest;part=1;" vertex="1" connectable="0" parent="Lg_2VnEJvZDRzH9SZ8TW-31">
          <mxGeometry width="30" height="30" as="geometry" />
        </mxCell>
        <mxCell id="Lg_2VnEJvZDRzH9SZ8TW-33" value="row 1" style="shape=partialRectangle;top=0;left=0;right=0;bottom=0;html=1;align=left;verticalAlign=top;fillColor=none;spacingLeft=34;spacingRight=4;whiteSpace=wrap;overflow=hidden;rotatable=0;points=[[0,0.5],[1,0.5]];portConstraint=eastwest;dropTarget=0;" vertex="1" parent="Lg_2VnEJvZDRzH9SZ8TW-30">
          <mxGeometry y="56" width="160" height="26" as="geometry" />
        </mxCell>
        <mxCell id="Lg_2VnEJvZDRzH9SZ8TW-34" value="" style="shape=partialRectangle;top=0;left=0;bottom=0;html=1;fillColor=none;align=left;verticalAlign=top;spacingLeft=4;spacingRight=4;whiteSpace=wrap;overflow=hidden;rotatable=0;points=[];portConstraint=eastwest;part=1;" vertex="1" connectable="0" parent="Lg_2VnEJvZDRzH9SZ8TW-33">
          <mxGeometry width="30" height="26" as="geometry" />
        </mxCell>
        <mxCell id="Lg_2VnEJvZDRzH9SZ8TW-35" value="row 2" style="shape=partialRectangle;top=0;left=0;right=0;bottom=0;html=1;align=left;verticalAlign=top;fillColor=none;spacingLeft=34;spacingRight=4;whiteSpace=wrap;overflow=hidden;rotatable=0;points=[[0,0.5],[1,0.5]];portConstraint=eastwest;dropTarget=0;" vertex="1" parent="Lg_2VnEJvZDRzH9SZ8TW-30">
          <mxGeometry y="82" width="160" height="26" as="geometry" />
        </mxCell>
        <mxCell id="Lg_2VnEJvZDRzH9SZ8TW-36" value="" style="shape=partialRectangle;top=0;left=0;bottom=0;html=1;fillColor=none;align=left;verticalAlign=top;spacingLeft=4;spacingRight=4;whiteSpace=wrap;overflow=hidden;rotatable=0;points=[];portConstraint=eastwest;part=1;" vertex="1" connectable="0" parent="Lg_2VnEJvZDRzH9SZ8TW-35">
          <mxGeometry width="30" height="26" as="geometry" />
        </mxCell>
        <mxCell id="Lg_2VnEJvZDRzH9SZ8TW-37" value="row 3" style="shape=partialRectangle;top=0;left=0;right=0;bottom=0;html=1;align=left;verticalAlign=top;fillColor=none;spacingLeft=34;spacingRight=4;whiteSpace=wrap;overflow=hidden;rotatable=0;points=[[0,0.5],[1,0.5]];portConstraint=eastwest;dropTarget=0;" vertex="1" parent="Lg_2VnEJvZDRzH9SZ8TW-30">
          <mxGeometry y="108" width="160" height="26" as="geometry" />
        </mxCell>
        <mxCell id="Lg_2VnEJvZDRzH9SZ8TW-38" value="" style="shape=partialRectangle;top=0;left=0;bottom=0;html=1;fillColor=none;align=left;verticalAlign=top;spacingLeft=4;spacingRight=4;whiteSpace=wrap;overflow=hidden;rotatable=0;points=[];portConstraint=eastwest;part=1;" vertex="1" connectable="0" parent="Lg_2VnEJvZDRzH9SZ8TW-37">
          <mxGeometry width="30" height="26" as="geometry" />
        </mxCell>
        <mxCell id="Lg_2VnEJvZDRzH9SZ8TW-39" value="" style="shape=partialRectangle;top=0;left=0;right=0;bottom=0;html=1;align=left;verticalAlign=top;fillColor=none;spacingLeft=34;spacingRight=4;whiteSpace=wrap;overflow=hidden;rotatable=0;points=[[0,0.5],[1,0.5]];portConstraint=eastwest;dropTarget=0;" vertex="1" parent="Lg_2VnEJvZDRzH9SZ8TW-30">
          <mxGeometry y="134" width="160" height="10" as="geometry" />
        </mxCell>
        <mxCell id="Lg_2VnEJvZDRzH9SZ8TW-40" value="" style="shape=partialRectangle;top=0;left=0;bottom=0;html=1;fillColor=none;align=left;verticalAlign=top;spacingLeft=4;spacingRight=4;whiteSpace=wrap;overflow=hidden;rotatable=0;points=[];portConstraint=eastwest;part=1;" vertex="1" connectable="0" parent="Lg_2VnEJvZDRzH9SZ8TW-39">
          <mxGeometry width="30" height="10" as="geometry" />
        </mxCell>
        <mxCell id="Lg_2VnEJvZDRzH9SZ8TW-41" value="Table" style="swimlane;html=1;fontStyle=0;childLayout=stackLayout;horizontal=1;startSize=26;fillColor=#e0e0e0;horizontalStack=0;resizeParent=1;resizeLast=0;collapsible=1;marginBottom=0;swimlaneFillColor=#ffffff;align=center;rounded=0;shadow=0;comic=0;labelBackgroundColor=none;strokeWidth=1;fontFamily=Verdana;fontSize=14" vertex="1" parent="1">
          <mxGeometry x="1160" y="460" width="160" height="112" as="geometry" />
        </mxCell>
        <mxCell id="Lg_2VnEJvZDRzH9SZ8TW-42" value="row 1" style="shape=partialRectangle;top=0;left=0;right=0;bottom=0;html=1;align=left;verticalAlign=middle;fillColor=none;spacingLeft=60;spacingRight=4;whiteSpace=wrap;overflow=hidden;rotatable=0;points=[[0,0.5],[1,0.5]];portConstraint=eastwest;dropTarget=0;fontStyle=5;" vertex="1" parent="Lg_2VnEJvZDRzH9SZ8TW-41">
          <mxGeometry y="26" width="160" height="30" as="geometry" />
        </mxCell>
        <mxCell id="Lg_2VnEJvZDRzH9SZ8TW-43" value="PK,FK1" style="shape=partialRectangle;fontStyle=1;top=0;left=0;bottom=0;html=1;fillColor=none;align=left;verticalAlign=middle;spacingLeft=4;spacingRight=4;whiteSpace=wrap;overflow=hidden;rotatable=0;points=[];portConstraint=eastwest;part=1;" vertex="1" connectable="0" parent="Lg_2VnEJvZDRzH9SZ8TW-42">
          <mxGeometry width="56" height="30" as="geometry" />
        </mxCell>
        <mxCell id="Lg_2VnEJvZDRzH9SZ8TW-44" value="row 2" style="shape=partialRectangle;top=0;left=0;right=0;bottom=1;html=1;align=left;verticalAlign=middle;fillColor=none;spacingLeft=60;spacingRight=4;whiteSpace=wrap;overflow=hidden;rotatable=0;points=[[0,0.5],[1,0.5]];portConstraint=eastwest;dropTarget=0;fontStyle=5;" vertex="1" parent="Lg_2VnEJvZDRzH9SZ8TW-41">
          <mxGeometry y="56" width="160" height="30" as="geometry" />
        </mxCell>
        <mxCell id="Lg_2VnEJvZDRzH9SZ8TW-45" value="PK,FK2" style="shape=partialRectangle;fontStyle=1;top=0;left=0;bottom=0;html=1;fillColor=none;align=left;verticalAlign=middle;spacingLeft=4;spacingRight=4;whiteSpace=wrap;overflow=hidden;rotatable=0;points=[];portConstraint=eastwest;part=1;" vertex="1" connectable="0" parent="Lg_2VnEJvZDRzH9SZ8TW-44">
          <mxGeometry width="56" height="30" as="geometry" />
        </mxCell>
        <mxCell id="Lg_2VnEJvZDRzH9SZ8TW-46" value="row 1" style="shape=partialRectangle;top=0;left=0;right=0;bottom=0;html=1;align=left;verticalAlign=top;fillColor=none;spacingLeft=60;spacingRight=4;whiteSpace=wrap;overflow=hidden;rotatable=0;points=[[0,0.5],[1,0.5]];portConstraint=eastwest;dropTarget=0;" vertex="1" parent="Lg_2VnEJvZDRzH9SZ8TW-41">
          <mxGeometry y="86" width="160" height="26" as="geometry" />
        </mxCell>
        <mxCell id="Lg_2VnEJvZDRzH9SZ8TW-47" value="" style="shape=partialRectangle;top=0;left=0;bottom=0;html=1;fillColor=none;align=left;verticalAlign=top;spacingLeft=4;spacingRight=4;whiteSpace=wrap;overflow=hidden;rotatable=0;points=[];portConstraint=eastwest;part=1;" vertex="1" connectable="0" parent="Lg_2VnEJvZDRzH9SZ8TW-46">
          <mxGeometry width="56" height="26" as="geometry" />
        </mxCell>
        <mxCell id="Lg_2VnEJvZDRzH9SZ8TW-48" value="Table" style="swimlane;html=1;fontStyle=0;childLayout=stackLayout;horizontal=1;startSize=26;fillColor=#e0e0e0;horizontalStack=0;resizeParent=1;resizeLast=0;collapsible=1;marginBottom=0;swimlaneFillColor=#ffffff;align=center;rounded=0;shadow=0;comic=0;labelBackgroundColor=none;strokeWidth=1;fontFamily=Verdana;fontSize=14" vertex="1" parent="1">
          <mxGeometry x="400" y="704" width="160" height="112" as="geometry" />
        </mxCell>
        <mxCell id="Lg_2VnEJvZDRzH9SZ8TW-49" value="row 1" style="shape=partialRectangle;top=0;left=0;right=0;bottom=0;html=1;align=left;verticalAlign=middle;fillColor=none;spacingLeft=60;spacingRight=4;whiteSpace=wrap;overflow=hidden;rotatable=0;points=[[0,0.5],[1,0.5]];portConstraint=eastwest;dropTarget=0;fontStyle=5;" vertex="1" parent="Lg_2VnEJvZDRzH9SZ8TW-48">
          <mxGeometry y="26" width="160" height="30" as="geometry" />
        </mxCell>
        <mxCell id="Lg_2VnEJvZDRzH9SZ8TW-50" value="PK,FK1" style="shape=partialRectangle;fontStyle=1;top=0;left=0;bottom=0;html=1;fillColor=none;align=left;verticalAlign=middle;spacingLeft=4;spacingRight=4;whiteSpace=wrap;overflow=hidden;rotatable=0;points=[];portConstraint=eastwest;part=1;" vertex="1" connectable="0" parent="Lg_2VnEJvZDRzH9SZ8TW-49">
          <mxGeometry width="56" height="30" as="geometry" />
        </mxCell>
        <mxCell id="Lg_2VnEJvZDRzH9SZ8TW-51" value="row 2" style="shape=partialRectangle;top=0;left=0;right=0;bottom=1;html=1;align=left;verticalAlign=middle;fillColor=none;spacingLeft=60;spacingRight=4;whiteSpace=wrap;overflow=hidden;rotatable=0;points=[[0,0.5],[1,0.5]];portConstraint=eastwest;dropTarget=0;fontStyle=5;" vertex="1" parent="Lg_2VnEJvZDRzH9SZ8TW-48">
          <mxGeometry y="56" width="160" height="30" as="geometry" />
        </mxCell>
        <mxCell id="Lg_2VnEJvZDRzH9SZ8TW-52" value="PK,FK2" style="shape=partialRectangle;fontStyle=1;top=0;left=0;bottom=0;html=1;fillColor=none;align=left;verticalAlign=middle;spacingLeft=4;spacingRight=4;whiteSpace=wrap;overflow=hidden;rotatable=0;points=[];portConstraint=eastwest;part=1;" vertex="1" connectable="0" parent="Lg_2VnEJvZDRzH9SZ8TW-51">
          <mxGeometry width="56" height="30" as="geometry" />
        </mxCell>
        <mxCell id="Lg_2VnEJvZDRzH9SZ8TW-53" value="row 1" style="shape=partialRectangle;top=0;left=0;right=0;bottom=0;html=1;align=left;verticalAlign=top;fillColor=none;spacingLeft=60;spacingRight=4;whiteSpace=wrap;overflow=hidden;rotatable=0;points=[[0,0.5],[1,0.5]];portConstraint=eastwest;dropTarget=0;" vertex="1" parent="Lg_2VnEJvZDRzH9SZ8TW-48">
          <mxGeometry y="86" width="160" height="26" as="geometry" />
        </mxCell>
        <mxCell id="Lg_2VnEJvZDRzH9SZ8TW-54" value="" style="shape=partialRectangle;top=0;left=0;bottom=0;html=1;fillColor=none;align=left;verticalAlign=top;spacingLeft=4;spacingRight=4;whiteSpace=wrap;overflow=hidden;rotatable=0;points=[];portConstraint=eastwest;part=1;" vertex="1" connectable="0" parent="Lg_2VnEJvZDRzH9SZ8TW-53">
          <mxGeometry width="56" height="26" as="geometry" />
        </mxCell>
        <mxCell id="Lg_2VnEJvZDRzH9SZ8TW-59" value="" style="edgeStyle=entityRelationEdgeStyle;html=1;endArrow=ERzeroToOne;startArrow=ERmandOne;labelBackgroundColor=none;fontFamily=Verdana;fontSize=14;exitX=1;exitY=0.5;entryX=0;entryY=0.5;" edge="1" parent="1" source="Lg_2VnEJvZDRzH9SZ8TW-49" target="Lg_2VnEJvZDRzH9SZ8TW-35">
          <mxGeometry width="100" height="100" relative="1" as="geometry">
            <mxPoint x="610" y="620" as="sourcePoint" />
            <mxPoint x="710" y="520" as="targetPoint" />
          </mxGeometry>
        </mxCell>
        <mxCell id="Lg_2VnEJvZDRzH9SZ8TW-60" value="" style="edgeStyle=entityRelationEdgeStyle;html=1;endArrow=ERzeroToMany;startArrow=ERzeroToOne;labelBackgroundColor=none;fontFamily=Verdana;fontSize=14;entryX=0;entryY=0.5;exitX=1;exitY=0.5;" edge="1" parent="1" source="Lg_2VnEJvZDRzH9SZ8TW-31" target="Lg_2VnEJvZDRzH9SZ8TW-42">
          <mxGeometry width="100" height="100" relative="1" as="geometry">
            <mxPoint x="1120" y="786" as="sourcePoint" />
            <mxPoint x="1220" y="686" as="targetPoint" />
          </mxGeometry>
        </mxCell>
        <mxCell id="Lg_2VnEJvZDRzH9SZ8TW-61" value="Table" style="swimlane;html=1;fontStyle=0;childLayout=stackLayout;horizontal=1;startSize=26;fillColor=#e0e0e0;horizontalStack=0;resizeParent=1;resizeLast=0;collapsible=1;marginBottom=0;swimlaneFillColor=#ffffff;align=center;rounded=0;shadow=0;comic=0;labelBackgroundColor=none;strokeWidth=1;fontFamily=Verdana;fontSize=14" vertex="1" parent="1">
          <mxGeometry x="1160" y="602" width="160" height="112" as="geometry" />
        </mxCell>
        <mxCell id="Lg_2VnEJvZDRzH9SZ8TW-62" value="row 1" style="shape=partialRectangle;top=0;left=0;right=0;bottom=0;html=1;align=left;verticalAlign=middle;fillColor=none;spacingLeft=60;spacingRight=4;whiteSpace=wrap;overflow=hidden;rotatable=0;points=[[0,0.5],[1,0.5]];portConstraint=eastwest;dropTarget=0;fontStyle=5;" vertex="1" parent="Lg_2VnEJvZDRzH9SZ8TW-61">
          <mxGeometry y="26" width="160" height="30" as="geometry" />
        </mxCell>
        <mxCell id="Lg_2VnEJvZDRzH9SZ8TW-63" value="PK,FK1" style="shape=partialRectangle;fontStyle=1;top=0;left=0;bottom=0;html=1;fillColor=none;align=left;verticalAlign=middle;spacingLeft=4;spacingRight=4;whiteSpace=wrap;overflow=hidden;rotatable=0;points=[];portConstraint=eastwest;part=1;" vertex="1" connectable="0" parent="Lg_2VnEJvZDRzH9SZ8TW-62">
          <mxGeometry width="56" height="30" as="geometry" />
        </mxCell>
        <mxCell id="Lg_2VnEJvZDRzH9SZ8TW-64" value="row 2" style="shape=partialRectangle;top=0;left=0;right=0;bottom=1;html=1;align=left;verticalAlign=middle;fillColor=none;spacingLeft=60;spacingRight=4;whiteSpace=wrap;overflow=hidden;rotatable=0;points=[[0,0.5],[1,0.5]];portConstraint=eastwest;dropTarget=0;fontStyle=5;" vertex="1" parent="Lg_2VnEJvZDRzH9SZ8TW-61">
          <mxGeometry y="56" width="160" height="30" as="geometry" />
        </mxCell>
        <mxCell id="Lg_2VnEJvZDRzH9SZ8TW-65" value="PK,FK2" style="shape=partialRectangle;fontStyle=1;top=0;left=0;bottom=0;html=1;fillColor=none;align=left;verticalAlign=middle;spacingLeft=4;spacingRight=4;whiteSpace=wrap;overflow=hidden;rotatable=0;points=[];portConstraint=eastwest;part=1;" vertex="1" connectable="0" parent="Lg_2VnEJvZDRzH9SZ8TW-64">
          <mxGeometry width="56" height="30" as="geometry" />
        </mxCell>
        <mxCell id="Lg_2VnEJvZDRzH9SZ8TW-66" value="row 1" style="shape=partialRectangle;top=0;left=0;right=0;bottom=0;html=1;align=left;verticalAlign=top;fillColor=none;spacingLeft=60;spacingRight=4;whiteSpace=wrap;overflow=hidden;rotatable=0;points=[[0,0.5],[1,0.5]];portConstraint=eastwest;dropTarget=0;" vertex="1" parent="Lg_2VnEJvZDRzH9SZ8TW-61">
          <mxGeometry y="86" width="160" height="26" as="geometry" />
        </mxCell>
        <mxCell id="Lg_2VnEJvZDRzH9SZ8TW-67" value="" style="shape=partialRectangle;top=0;left=0;bottom=0;html=1;fillColor=none;align=left;verticalAlign=top;spacingLeft=4;spacingRight=4;whiteSpace=wrap;overflow=hidden;rotatable=0;points=[];portConstraint=eastwest;part=1;" vertex="1" connectable="0" parent="Lg_2VnEJvZDRzH9SZ8TW-66">
          <mxGeometry width="56" height="26" as="geometry" />
        </mxCell>
        <mxCell id="Lg_2VnEJvZDRzH9SZ8TW-68" value="Table" style="swimlane;html=1;fontStyle=0;childLayout=stackLayout;horizontal=1;startSize=26;fillColor=#e0e0e0;horizontalStack=0;resizeParent=1;resizeLast=0;collapsible=1;marginBottom=0;swimlaneFillColor=#ffffff;align=center;rounded=0;shadow=0;comic=0;labelBackgroundColor=none;strokeWidth=1;fontFamily=Verdana;fontSize=14" vertex="1" parent="1">
          <mxGeometry x="1160" y="736" width="160" height="112" as="geometry" />
        </mxCell>
        <mxCell id="Lg_2VnEJvZDRzH9SZ8TW-69" value="row 1" style="shape=partialRectangle;top=0;left=0;right=0;bottom=0;html=1;align=left;verticalAlign=middle;fillColor=none;spacingLeft=60;spacingRight=4;whiteSpace=wrap;overflow=hidden;rotatable=0;points=[[0,0.5],[1,0.5]];portConstraint=eastwest;dropTarget=0;fontStyle=5;" vertex="1" parent="Lg_2VnEJvZDRzH9SZ8TW-68">
          <mxGeometry y="26" width="160" height="30" as="geometry" />
        </mxCell>
        <mxCell id="Lg_2VnEJvZDRzH9SZ8TW-70" value="PK,FK1" style="shape=partialRectangle;fontStyle=1;top=0;left=0;bottom=0;html=1;fillColor=none;align=left;verticalAlign=middle;spacingLeft=4;spacingRight=4;whiteSpace=wrap;overflow=hidden;rotatable=0;points=[];portConstraint=eastwest;part=1;" vertex="1" connectable="0" parent="Lg_2VnEJvZDRzH9SZ8TW-69">
          <mxGeometry width="56" height="30" as="geometry" />
        </mxCell>
        <mxCell id="Lg_2VnEJvZDRzH9SZ8TW-71" value="row 2" style="shape=partialRectangle;top=0;left=0;right=0;bottom=1;html=1;align=left;verticalAlign=middle;fillColor=none;spacingLeft=60;spacingRight=4;whiteSpace=wrap;overflow=hidden;rotatable=0;points=[[0,0.5],[1,0.5]];portConstraint=eastwest;dropTarget=0;fontStyle=5;" vertex="1" parent="Lg_2VnEJvZDRzH9SZ8TW-68">
          <mxGeometry y="56" width="160" height="30" as="geometry" />
        </mxCell>
        <mxCell id="Lg_2VnEJvZDRzH9SZ8TW-72" value="PK,FK2" style="shape=partialRectangle;fontStyle=1;top=0;left=0;bottom=0;html=1;fillColor=none;align=left;verticalAlign=middle;spacingLeft=4;spacingRight=4;whiteSpace=wrap;overflow=hidden;rotatable=0;points=[];portConstraint=eastwest;part=1;" vertex="1" connectable="0" parent="Lg_2VnEJvZDRzH9SZ8TW-71">
          <mxGeometry width="56" height="30" as="geometry" />
        </mxCell>
        <mxCell id="Lg_2VnEJvZDRzH9SZ8TW-73" value="row 1" style="shape=partialRectangle;top=0;left=0;right=0;bottom=0;html=1;align=left;verticalAlign=top;fillColor=none;spacingLeft=60;spacingRight=4;whiteSpace=wrap;overflow=hidden;rotatable=0;points=[[0,0.5],[1,0.5]];portConstraint=eastwest;dropTarget=0;" vertex="1" parent="Lg_2VnEJvZDRzH9SZ8TW-68">
          <mxGeometry y="86" width="160" height="26" as="geometry" />
        </mxCell>
        <mxCell id="Lg_2VnEJvZDRzH9SZ8TW-74" value="" style="shape=partialRectangle;top=0;left=0;bottom=0;html=1;fillColor=none;align=left;verticalAlign=top;spacingLeft=4;spacingRight=4;whiteSpace=wrap;overflow=hidden;rotatable=0;points=[];portConstraint=eastwest;part=1;" vertex="1" connectable="0" parent="Lg_2VnEJvZDRzH9SZ8TW-73">
          <mxGeometry width="56" height="26" as="geometry" />
        </mxCell>
        <mxCell id="Lg_2VnEJvZDRzH9SZ8TW-75" value="" style="edgeStyle=entityRelationEdgeStyle;html=1;endArrow=ERzeroToMany;startArrow=ERzeroToOne;labelBackgroundColor=none;fontFamily=Verdana;fontSize=14;entryX=0;entryY=0.5;exitX=1;exitY=0.5;" edge="1" parent="1" source="Lg_2VnEJvZDRzH9SZ8TW-33" target="Lg_2VnEJvZDRzH9SZ8TW-62">
          <mxGeometry width="100" height="100" relative="1" as="geometry">
            <mxPoint x="1019.7647058823532" y="645.5294117647059" as="sourcePoint" />
            <mxPoint x="1170.3529411764707" y="511.41176470588243" as="targetPoint" />
          </mxGeometry>
        </mxCell>
        <mxCell id="Lg_2VnEJvZDRzH9SZ8TW-76" value="" style="edgeStyle=entityRelationEdgeStyle;html=1;endArrow=ERzeroToMany;startArrow=ERzeroToOne;labelBackgroundColor=none;fontFamily=Verdana;fontSize=14;entryX=0;entryY=0.5;exitX=1;exitY=0.5;" edge="1" parent="1" source="Lg_2VnEJvZDRzH9SZ8TW-37" target="Lg_2VnEJvZDRzH9SZ8TW-71">
          <mxGeometry width="100" height="100" relative="1" as="geometry">
            <mxPoint x="1029.7647058823532" y="655.5294117647059" as="sourcePoint" />
            <mxPoint x="1180.3529411764707" y="521.4117647058824" as="targetPoint" />
          </mxGeometry>
        </mxCell>
        <mxCell id="Lg_2VnEJvZDRzH9SZ8TW-77" value="eu_quartier" style="swimlane;html=1;fontStyle=0;childLayout=stackLayout;horizontal=1;startSize=26;horizontalStack=0;resizeParent=1;resizeLast=0;collapsible=1;marginBottom=0;swimlaneFillColor=#ffffff;align=center;rounded=0;shadow=0;comic=0;labelBackgroundColor=none;strokeWidth=1;fontFamily=Verdana;fontSize=14;fillColor=#fad9d5;strokeColor=#ae4132;" vertex="1" parent="1">
          <mxGeometry x="40" y="41" width="160" height="378" as="geometry" />
        </mxCell>
        <mxCell id="Lg_2VnEJvZDRzH9SZ8TW-78" value="gid" style="shape=partialRectangle;top=0;left=0;right=0;bottom=1;html=1;align=left;verticalAlign=middle;fillColor=none;spacingLeft=34;spacingRight=4;whiteSpace=wrap;overflow=hidden;rotatable=0;points=[[0,0.5],[1,0.5]];portConstraint=eastwest;dropTarget=0;fontStyle=5;" vertex="1" parent="Lg_2VnEJvZDRzH9SZ8TW-77">
          <mxGeometry y="26" width="160" height="30" as="geometry" />
        </mxCell>
        <mxCell id="Lg_2VnEJvZDRzH9SZ8TW-79" value="PK" style="shape=partialRectangle;top=0;left=0;bottom=0;html=1;fillColor=none;align=left;verticalAlign=middle;spacingLeft=4;spacingRight=4;whiteSpace=wrap;overflow=hidden;rotatable=0;points=[];portConstraint=eastwest;part=1;fontSize=11;" vertex="1" connectable="0" parent="Lg_2VnEJvZDRzH9SZ8TW-78">
          <mxGeometry width="30" height="30" as="geometry" />
        </mxCell>
        <mxCell id="Lg_2VnEJvZDRzH9SZ8TW-80" value="planche" style="shape=partialRectangle;top=0;left=0;right=0;bottom=0;html=1;align=left;verticalAlign=top;fillColor=none;spacingLeft=34;spacingRight=4;whiteSpace=wrap;overflow=hidden;rotatable=0;points=[[0,0.5],[1,0.5]];portConstraint=eastwest;dropTarget=0;" vertex="1" parent="Lg_2VnEJvZDRzH9SZ8TW-77">
          <mxGeometry y="56" width="160" height="26" as="geometry" />
        </mxCell>
        <mxCell id="Lg_2VnEJvZDRzH9SZ8TW-81" value="" style="shape=partialRectangle;top=0;left=0;bottom=0;html=1;fillColor=none;align=left;verticalAlign=top;spacingLeft=4;spacingRight=4;whiteSpace=wrap;overflow=hidden;rotatable=0;points=[];portConstraint=eastwest;part=1;fontSize=11;" vertex="1" connectable="0" parent="Lg_2VnEJvZDRzH9SZ8TW-80">
          <mxGeometry width="30" height="26" as="geometry" />
        </mxCell>
        <mxCell id="Lg_2VnEJvZDRzH9SZ8TW-82" value="code_insee" style="shape=partialRectangle;top=0;left=0;right=0;bottom=0;html=1;align=left;verticalAlign=top;fillColor=none;spacingLeft=34;spacingRight=4;whiteSpace=wrap;overflow=hidden;rotatable=0;points=[[0,0.5],[1,0.5]];portConstraint=eastwest;dropTarget=0;" vertex="1" parent="Lg_2VnEJvZDRzH9SZ8TW-77">
          <mxGeometry y="82" width="160" height="26" as="geometry" />
        </mxCell>
        <mxCell id="Lg_2VnEJvZDRzH9SZ8TW-83" value="" style="shape=partialRectangle;top=0;left=0;bottom=0;html=1;fillColor=none;align=left;verticalAlign=top;spacingLeft=4;spacingRight=4;whiteSpace=wrap;overflow=hidden;rotatable=0;points=[];portConstraint=eastwest;part=1;fontSize=11;" vertex="1" connectable="0" parent="Lg_2VnEJvZDRzH9SZ8TW-82">
          <mxGeometry width="30" height="26" as="geometry" />
        </mxCell>
        <mxCell id="Lg_2VnEJvZDRzH9SZ8TW-92" value="commune" style="shape=partialRectangle;top=0;left=0;right=0;bottom=0;html=1;align=left;verticalAlign=top;fillColor=none;spacingLeft=34;spacingRight=4;whiteSpace=wrap;overflow=hidden;rotatable=0;points=[[0,0.5],[1,0.5]];portConstraint=eastwest;dropTarget=0;" vertex="1" parent="Lg_2VnEJvZDRzH9SZ8TW-77">
          <mxGeometry y="108" width="160" height="26" as="geometry" />
        </mxCell>
        <mxCell id="Lg_2VnEJvZDRzH9SZ8TW-93" value="" style="shape=partialRectangle;top=0;left=0;bottom=0;html=1;fillColor=none;align=left;verticalAlign=top;spacingLeft=4;spacingRight=4;whiteSpace=wrap;overflow=hidden;rotatable=0;points=[];portConstraint=eastwest;part=1;fontSize=11;" vertex="1" connectable="0" parent="Lg_2VnEJvZDRzH9SZ8TW-92">
          <mxGeometry width="30" height="26" as="geometry" />
        </mxCell>
        <mxCell id="Lg_2VnEJvZDRzH9SZ8TW-94" value="type_objet" style="shape=partialRectangle;top=0;left=0;right=0;bottom=0;html=1;align=left;verticalAlign=top;fillColor=none;spacingLeft=34;spacingRight=4;whiteSpace=wrap;overflow=hidden;rotatable=0;points=[[0,0.5],[1,0.5]];portConstraint=eastwest;dropTarget=0;" vertex="1" parent="Lg_2VnEJvZDRzH9SZ8TW-77">
          <mxGeometry y="134" width="160" height="26" as="geometry" />
        </mxCell>
        <mxCell id="Lg_2VnEJvZDRzH9SZ8TW-95" value="" style="shape=partialRectangle;top=0;left=0;bottom=0;html=1;fillColor=none;align=left;verticalAlign=top;spacingLeft=4;spacingRight=4;whiteSpace=wrap;overflow=hidden;rotatable=0;points=[];portConstraint=eastwest;part=1;fontSize=11;" vertex="1" connectable="0" parent="Lg_2VnEJvZDRzH9SZ8TW-94">
          <mxGeometry width="30" height="26" as="geometry" />
        </mxCell>
        <mxCell id="Lg_2VnEJvZDRzH9SZ8TW-96" value="nom" style="shape=partialRectangle;top=0;left=0;right=0;bottom=0;html=1;align=left;verticalAlign=top;fillColor=none;spacingLeft=34;spacingRight=4;whiteSpace=wrap;overflow=hidden;rotatable=0;points=[[0,0.5],[1,0.5]];portConstraint=eastwest;dropTarget=0;" vertex="1" parent="Lg_2VnEJvZDRzH9SZ8TW-77">
          <mxGeometry y="160" width="160" height="26" as="geometry" />
        </mxCell>
        <mxCell id="Lg_2VnEJvZDRzH9SZ8TW-97" value="" style="shape=partialRectangle;top=0;left=0;bottom=0;html=1;fillColor=none;align=left;verticalAlign=top;spacingLeft=4;spacingRight=4;whiteSpace=wrap;overflow=hidden;rotatable=0;points=[];portConstraint=eastwest;part=1;fontSize=11;" vertex="1" connectable="0" parent="Lg_2VnEJvZDRzH9SZ8TW-96">
          <mxGeometry width="30" height="26" as="geometry" />
        </mxCell>
        <mxCell id="Lg_2VnEJvZDRzH9SZ8TW-100" value="incorpore_old" style="shape=partialRectangle;top=0;left=0;right=0;bottom=0;html=1;align=left;verticalAlign=top;fillColor=none;spacingLeft=34;spacingRight=4;whiteSpace=wrap;overflow=hidden;rotatable=0;points=[[0,0.5],[1,0.5]];portConstraint=eastwest;dropTarget=0;" vertex="1" parent="Lg_2VnEJvZDRzH9SZ8TW-77">
          <mxGeometry y="186" width="160" height="26" as="geometry" />
        </mxCell>
        <mxCell id="Lg_2VnEJvZDRzH9SZ8TW-101" value="" style="shape=partialRectangle;top=0;left=0;bottom=0;html=1;fillColor=none;align=left;verticalAlign=top;spacingLeft=4;spacingRight=4;whiteSpace=wrap;overflow=hidden;rotatable=0;points=[];portConstraint=eastwest;part=1;fontSize=11;" vertex="1" connectable="0" parent="Lg_2VnEJvZDRzH9SZ8TW-100">
          <mxGeometry width="30" height="26" as="geometry" />
        </mxCell>
        <mxCell id="Lg_2VnEJvZDRzH9SZ8TW-90" value="date_incorporation" style="shape=partialRectangle;top=0;left=0;right=0;bottom=0;html=1;align=left;verticalAlign=top;fillColor=none;spacingLeft=34;spacingRight=4;whiteSpace=wrap;overflow=hidden;rotatable=0;points=[[0,0.5],[1,0.5]];portConstraint=eastwest;dropTarget=0;" vertex="1" parent="Lg_2VnEJvZDRzH9SZ8TW-77">
          <mxGeometry y="212" width="160" height="26" as="geometry" />
        </mxCell>
        <mxCell id="Lg_2VnEJvZDRzH9SZ8TW-91" value="" style="shape=partialRectangle;top=0;left=0;bottom=0;html=1;fillColor=none;align=left;verticalAlign=top;spacingLeft=4;spacingRight=4;whiteSpace=wrap;overflow=hidden;rotatable=0;points=[];portConstraint=eastwest;part=1;fontSize=11;" vertex="1" connectable="0" parent="Lg_2VnEJvZDRzH9SZ8TW-90">
          <mxGeometry width="30" height="26" as="geometry" />
        </mxCell>
        <mxCell id="Lg_2VnEJvZDRzH9SZ8TW-102" value="reserve1" style="shape=partialRectangle;top=0;left=0;right=0;bottom=0;html=1;align=left;verticalAlign=top;fillColor=none;spacingLeft=34;spacingRight=4;whiteSpace=wrap;overflow=hidden;rotatable=0;points=[[0,0.5],[1,0.5]];portConstraint=eastwest;dropTarget=0;" vertex="1" parent="Lg_2VnEJvZDRzH9SZ8TW-77">
          <mxGeometry y="238" width="160" height="26" as="geometry" />
        </mxCell>
        <mxCell id="Lg_2VnEJvZDRzH9SZ8TW-103" value="" style="shape=partialRectangle;top=0;left=0;bottom=0;html=1;fillColor=none;align=left;verticalAlign=top;spacingLeft=4;spacingRight=4;whiteSpace=wrap;overflow=hidden;rotatable=0;points=[];portConstraint=eastwest;part=1;fontSize=11;" vertex="1" connectable="0" parent="Lg_2VnEJvZDRzH9SZ8TW-102">
          <mxGeometry width="30" height="26" as="geometry" />
        </mxCell>
        <mxCell id="Lg_2VnEJvZDRzH9SZ8TW-98" value="reserve2" style="shape=partialRectangle;top=0;left=0;right=0;bottom=0;html=1;align=left;verticalAlign=top;fillColor=none;spacingLeft=34;spacingRight=4;whiteSpace=wrap;overflow=hidden;rotatable=0;points=[[0,0.5],[1,0.5]];portConstraint=eastwest;dropTarget=0;" vertex="1" parent="Lg_2VnEJvZDRzH9SZ8TW-77">
          <mxGeometry y="264" width="160" height="26" as="geometry" />
        </mxCell>
        <mxCell id="Lg_2VnEJvZDRzH9SZ8TW-99" value="" style="shape=partialRectangle;top=0;left=0;bottom=0;html=1;fillColor=none;align=left;verticalAlign=top;spacingLeft=4;spacingRight=4;whiteSpace=wrap;overflow=hidden;rotatable=0;points=[];portConstraint=eastwest;part=1;fontSize=11;" vertex="1" connectable="0" parent="Lg_2VnEJvZDRzH9SZ8TW-98">
          <mxGeometry width="30" height="26" as="geometry" />
        </mxCell>
        <mxCell id="Lg_2VnEJvZDRzH9SZ8TW-84" value="observsation" style="shape=partialRectangle;top=0;left=0;right=0;bottom=0;html=1;align=left;verticalAlign=top;fillColor=none;spacingLeft=34;spacingRight=4;whiteSpace=wrap;overflow=hidden;rotatable=0;points=[[0,0.5],[1,0.5]];portConstraint=eastwest;dropTarget=0;" vertex="1" parent="Lg_2VnEJvZDRzH9SZ8TW-77">
          <mxGeometry y="290" width="160" height="26" as="geometry" />
        </mxCell>
        <mxCell id="Lg_2VnEJvZDRzH9SZ8TW-85" value="" style="shape=partialRectangle;top=0;left=0;bottom=0;html=1;fillColor=none;align=left;verticalAlign=top;spacingLeft=4;spacingRight=4;whiteSpace=wrap;overflow=hidden;rotatable=0;points=[];portConstraint=eastwest;part=1;fontSize=11;" vertex="1" connectable="0" parent="Lg_2VnEJvZDRzH9SZ8TW-84">
          <mxGeometry width="30" height="26" as="geometry" />
        </mxCell>
        <mxCell id="Lg_2VnEJvZDRzH9SZ8TW-104" value="statut" style="shape=partialRectangle;top=0;left=0;right=0;bottom=0;html=1;align=left;verticalAlign=top;fillColor=none;spacingLeft=34;spacingRight=4;whiteSpace=wrap;overflow=hidden;rotatable=0;points=[[0,0.5],[1,0.5]];portConstraint=eastwest;dropTarget=0;" vertex="1" parent="Lg_2VnEJvZDRzH9SZ8TW-77">
          <mxGeometry y="316" width="160" height="26" as="geometry" />
        </mxCell>
        <mxCell id="Lg_2VnEJvZDRzH9SZ8TW-105" value="" style="shape=partialRectangle;top=0;left=0;bottom=0;html=1;fillColor=none;align=left;verticalAlign=top;spacingLeft=4;spacingRight=4;whiteSpace=wrap;overflow=hidden;rotatable=0;points=[];portConstraint=eastwest;part=1;fontSize=11;" vertex="1" connectable="0" parent="Lg_2VnEJvZDRzH9SZ8TW-104">
          <mxGeometry width="30" height="26" as="geometry" />
        </mxCell>
        <mxCell id="Lg_2VnEJvZDRzH9SZ8TW-108" value="geom" style="shape=partialRectangle;top=0;left=0;right=0;bottom=0;html=1;align=left;verticalAlign=top;fillColor=none;spacingLeft=34;spacingRight=4;whiteSpace=wrap;overflow=hidden;rotatable=0;points=[[0,0.5],[1,0.5]];portConstraint=eastwest;dropTarget=0;" vertex="1" parent="Lg_2VnEJvZDRzH9SZ8TW-77">
          <mxGeometry y="342" width="160" height="26" as="geometry" />
        </mxCell>
        <mxCell id="Lg_2VnEJvZDRzH9SZ8TW-109" value="" style="shape=partialRectangle;top=0;left=0;bottom=0;html=1;fillColor=none;align=left;verticalAlign=top;spacingLeft=4;spacingRight=4;whiteSpace=wrap;overflow=hidden;rotatable=0;points=[];portConstraint=eastwest;part=1;fontSize=11;" vertex="1" connectable="0" parent="Lg_2VnEJvZDRzH9SZ8TW-108">
          <mxGeometry width="30" height="26" as="geometry" />
        </mxCell>
        <mxCell id="Lg_2VnEJvZDRzH9SZ8TW-86" value="" style="shape=partialRectangle;top=0;left=0;right=0;bottom=0;html=1;align=left;verticalAlign=top;fillColor=none;spacingLeft=34;spacingRight=4;whiteSpace=wrap;overflow=hidden;rotatable=0;points=[[0,0.5],[1,0.5]];portConstraint=eastwest;dropTarget=0;" vertex="1" parent="Lg_2VnEJvZDRzH9SZ8TW-77">
          <mxGeometry y="368" width="160" height="10" as="geometry" />
        </mxCell>
        <mxCell id="Lg_2VnEJvZDRzH9SZ8TW-87" value="" style="shape=partialRectangle;top=0;left=0;bottom=0;html=1;fillColor=none;align=left;verticalAlign=top;spacingLeft=4;spacingRight=4;whiteSpace=wrap;overflow=hidden;rotatable=0;points=[];portConstraint=eastwest;part=1;fontSize=11;" vertex="1" connectable="0" parent="Lg_2VnEJvZDRzH9SZ8TW-86">
          <mxGeometry width="30" height="10" as="geometry" />
        </mxCell>
        <mxCell id="Lg_2VnEJvZDRzH9SZ8TW-111" style="edgeStyle=orthogonalEdgeStyle;rounded=1;orthogonalLoop=1;jettySize=auto;html=1;exitX=1;exitY=0.5;exitDx=0;exitDy=0;entryX=0;entryY=0.5;entryDx=0;entryDy=0;" edge="1" parent="1" source="Lg_2VnEJvZDRzH9SZ8TW-78" target="Lg_2VnEJvZDRzH9SZ8TW-11">
          <mxGeometry relative="1" as="geometry" />
        </mxCell>
        <mxCell id="Lg_2VnEJvZDRzH9SZ8TW-112" style="edgeStyle=orthogonalEdgeStyle;orthogonalLoop=1;jettySize=auto;html=1;exitX=0;exitY=0.5;exitDx=0;exitDy=0;entryX=1;entryY=0.5;entryDx=0;entryDy=0;curved=1;" edge="1" parent="1" source="Lg_2VnEJvZDRzH9SZ8TW-20" target="Lg_2VnEJvZDRzH9SZ8TW-13">
          <mxGeometry relative="1" as="geometry" />
        </mxCell>
        <mxCell id="Lg_2VnEJvZDRzH9SZ8TW-121" value="row 3" style="shape=partialRectangle;top=0;left=0;right=0;bottom=0;html=1;align=left;verticalAlign=top;fillColor=none;spacingLeft=34;spacingRight=4;whiteSpace=wrap;overflow=hidden;rotatable=0;points=[[0,0.5],[1,0.5]];portConstraint=eastwest;dropTarget=0;fontSize=11;" vertex="1" parent="1">
          <mxGeometry x="900" y="52.5" width="160" height="26" as="geometry" />
        </mxCell>
        <mxCell id="Lg_2VnEJvZDRzH9SZ8TW-122" value="" style="shape=partialRectangle;top=0;left=0;bottom=0;html=1;fillColor=none;align=left;verticalAlign=top;spacingLeft=4;spacingRight=4;whiteSpace=wrap;overflow=hidden;rotatable=0;points=[];portConstraint=eastwest;part=1;fontSize=11;" vertex="1" connectable="0" parent="Lg_2VnEJvZDRzH9SZ8TW-121">
          <mxGeometry width="30" height="26" as="geometry" />
        </mxCell>
      </root>
    </mxGraphModel>
  </diagram>
</mxfile>
